<?xml version="1.0" encoding="UTF-8" standalone="no"?>
<!-- Created with Inkscape (http://www.inkscape.org/) -->

<svg
   xmlns:dc="http://purl.org/dc/elements/1.1/"
   xmlns:cc="http://creativecommons.org/ns#"
   xmlns:rdf="http://www.w3.org/1999/02/22-rdf-syntax-ns#"
   xmlns:svg="http://www.w3.org/2000/svg"
   xmlns="http://www.w3.org/2000/svg"
   xmlns:xlink="http://www.w3.org/1999/xlink"
   xmlns:sodipodi="http://sodipodi.sourceforge.net/DTD/sodipodi-0.dtd"
   xmlns:inkscape="http://www.inkscape.org/namespaces/inkscape"
   width="1024"
   height="1024"
   id="svg4714"
   version="1.1"
   inkscape:version="0.48.0 r9654"
   sodipodi:docname="^.svg">
  <defs
     id="defs4716">
    <linearGradient
       id="linearGradient4129">
      <stop
         style="stop-color:#ffffff;stop-opacity:0.67843139;"
         offset="0"
         id="stop4131" />
      <stop
         style="stop-color:#000000;stop-opacity:0;"
         offset="1"
         id="stop4133" />
    </linearGradient>
    <linearGradient
       inkscape:collect="always"
       id="linearGradient5513">
      <stop
         style="stop-color:#d3ffd2;stop-opacity:1;"
         offset="0"
         id="stop5515" />
      <stop
         style="stop-color:#d3ffd2;stop-opacity:0;"
         offset="1"
         id="stop5517" />
    </linearGradient>
    <linearGradient
       inkscape:collect="always"
       xlink:href="#linearGradient5513"
       id="linearGradient5519"
       x1="507.83633"
       y1="20.407736"
       x2="480.42447"
       y2="1041.9352"
       gradientUnits="userSpaceOnUse" />
    <linearGradient
       inkscape:collect="always"
       xlink:href="#linearGradient4129"
       id="linearGradient4135"
       x1="129.63636"
       y1="480.00852"
       x2="971.93939"
       y2="480.00852"
       gradientUnits="userSpaceOnUse" />
    <linearGradient
       inkscape:collect="always"
       xlink:href="#linearGradient4129"
       id="linearGradient4156"
       gradientUnits="userSpaceOnUse"
       x1="129.63635"
       y1="480.00851"
       x2="971.93939"
       y2="480.00851" />
  </defs>
  <sodipodi:namedview
     id="base"
     pagecolor="#001228"
     bordercolor="#666666"
     borderopacity="1.0"
     inkscape:pageopacity="1"
     inkscape:pageshadow="2"
     inkscape:zoom="0.35351563"
     inkscape:cx="361.30108"
     inkscape:cy="500.37813"
     inkscape:document-units="px"
     inkscape:current-layer="layer1"
     showgrid="false"
     inkscape:showpageshadow="false"
     inkscape:window-width="1268"
     inkscape:window-height="996"
     inkscape:window-x="0"
     inkscape:window-y="0"
     inkscape:window-maximized="1"
     inkscape:snap-page="false" />
  <metadata
     id="metadata4719">
    <rdf:RDF>
      <cc:Work
         rdf:about="">
        <dc:format>image/svg+xml</dc:format>
        <dc:type
           rdf:resource="http://purl.org/dc/dcmitype/StillImage" />
        <dc:title></dc:title>
      </cc:Work>
    </rdf:RDF>
  </metadata>
  <g
     inkscape:label="Layer 1"
     inkscape:groupmode="layer"
     id="layer1"
     transform="translate(0,-28.362183)">
    <path
       sodipodi:type="arc"
       style="fill:#16ff10;fill-opacity:1;fill-rule:nonzero;stroke:none"
       id="path5490"
       sodipodi:cx="505.71429"
       sodipodi:cy="529.71429"
       sodipodi:rx="511.42856"
       sodipodi:ry="511.42856"
       d="m 1017.1429,529.71429 c 0,282.4542 -228.97441,511.42861 -511.42861,511.42861 -282.45419,0 -511.4285539,-228.97441 -511.4285539,-511.42861 0,-282.45419 228.9743639,-511.428554 511.4285539,-511.428554 282.4542,0 511.42861,228.974364 511.42861,511.428554 z"
       transform="matrix(-1,0,0,1,1017.7143,10.647889)" />
    <path
       transform="matrix(-0.90716754,0,0,0.90716754,970.76759,59.82257)"
       d="m 1017.1429,529.71429 c 0,282.4542 -228.97441,511.42861 -511.42861,511.42861 -282.45419,0 -511.4285539,-228.97441 -511.4285539,-511.42861 0,-282.45419 228.9743639,-511.428554 511.4285539,-511.428554 282.4542,0 511.42861,228.974364 511.42861,511.428554 z"
       sodipodi:ry="511.42856"
       sodipodi:rx="511.42856"
       sodipodi:cy="529.71429"
       sodipodi:cx="505.71429"
       id="path5492"
       style="fill:url(#linearGradient5519);fill-opacity:1;fill-rule:nonzero;stroke:none"
       sodipodi:type="arc" />
    <path
       style="fill:#000000;fill-opacity:1;stroke:#000000;stroke-width:20;stroke-linecap:butt;stroke-linejoin:miter;stroke-miterlimit:4;stroke-opacity:1;stroke-dasharray:none"
       d="m 169.96143,363.19559 c -14.58656,2.74166 -30.30443,3.50352 -30.32507,31.73554 l 0,177.71901 c 0.34273,19.6389 11.18197,28.7813 30.32507,29.61983 l 378.00551,0 c 42.28022,-1.69121 62.89136,4.99249 56.41873,42.31405 l -29.88202,172.30135 c -5.4838,31.6199 -14.44182,98.68156 48.5766,30.97471 L 961.93939,483.79063 623.08025,112.83747 C 574.93976,60.1375 564.7502,82.620532 574.50365,137.95419 l 29.88202,169.5279 c 13.55068,46.3051 -3.07529,55.7135 -56.41873,55.7135 z"
       id="path5521"
       inkscape:connector-curvature="0"
       transform="matrix(0,-1,1,0,31.991484,1087.0614)"
       sodipodi:nodetypes="cccccssscssccc" />
    <path
       sodipodi:nodetypes="cccccssscssccc"
       transform="matrix(0,-1,1,0,31.991484,1087.0614)"
       inkscape:connector-curvature="0"
       id="path3359"
       d="m 169.96143,363.19559 c -14.58656,2.74166 -30.30443,3.50352 -30.32507,31.73554 l 0,177.71901 c 0.34273,19.6389 11.18197,28.7813 30.32507,29.61983 l 378.00551,0 c 42.28022,-1.69121 62.89136,4.99249 56.41873,42.31405 l -29.88202,172.30135 c -5.4838,31.6199 -14.44182,98.68156 48.5766,30.97471 L 961.93939,483.79063 623.08025,112.83747 C 574.93976,60.1375 564.7502,82.620532 574.50365,137.95419 l 29.88202,169.5279 c 13.55068,46.3051 -3.07529,55.7135 -56.41873,55.7135 z"
       style="fill:url(#linearGradient4156);fill-opacity:1.0;stroke:#000000;stroke-width:20;stroke-linecap:butt;stroke-linejoin:miter;stroke-miterlimit:4;stroke-opacity:1;stroke-dasharray:none" />
  </g>
</svg>
